<mxfile host="app.diagrams.net" modified="2022-08-19T08:27:24.476Z" agent="5.0 (Windows NT 10.0; Win64; x64) AppleWebKit/537.36 (KHTML, like Gecko) Chrome/104.0.5112.102 Safari/537.36" etag="LWKR5t5XmJejUwj0fxYf" version="20.2.4" type="github">
  <diagram id="Dpa_Sp02mLeQM-O2cHQ6" name="Page-1">
    <mxGraphModel dx="2128" dy="575" grid="1" gridSize="10" guides="1" tooltips="1" connect="1" arrows="1" fold="1" page="1" pageScale="1" pageWidth="850" pageHeight="1100" math="0" shadow="0">
      <root>
        <mxCell id="0" />
        <mxCell id="1" parent="0" />
        <mxCell id="Sp0Ged5I5R-mPskfn0-_-2" value="" style="ellipse;whiteSpace=wrap;html=1;aspect=fixed;" vertex="1" parent="1">
          <mxGeometry x="160" y="240" width="80" height="80" as="geometry" />
        </mxCell>
        <mxCell id="Sp0Ged5I5R-mPskfn0-_-3" value="" style="ellipse;whiteSpace=wrap;html=1;aspect=fixed;" vertex="1" parent="1">
          <mxGeometry x="390" y="50" width="80" height="80" as="geometry" />
        </mxCell>
        <mxCell id="Sp0Ged5I5R-mPskfn0-_-4" value="" style="ellipse;whiteSpace=wrap;html=1;aspect=fixed;" vertex="1" parent="1">
          <mxGeometry x="660" y="240" width="80" height="80" as="geometry" />
        </mxCell>
        <mxCell id="Sp0Ged5I5R-mPskfn0-_-5" value="" style="ellipse;whiteSpace=wrap;html=1;aspect=fixed;" vertex="1" parent="1">
          <mxGeometry x="390" y="450" width="80" height="80" as="geometry" />
        </mxCell>
        <mxCell id="Sp0Ged5I5R-mPskfn0-_-6" value="" style="endArrow=classic;startArrow=classic;html=1;rounded=0;exitX=1;exitY=0.5;exitDx=0;exitDy=0;entryX=0.005;entryY=0.693;entryDx=0;entryDy=0;entryPerimeter=0;" edge="1" parent="1" source="Sp0Ged5I5R-mPskfn0-_-2" target="Sp0Ged5I5R-mPskfn0-_-3">
          <mxGeometry width="50" height="50" relative="1" as="geometry">
            <mxPoint x="320" y="310" as="sourcePoint" />
            <mxPoint x="370" y="260" as="targetPoint" />
          </mxGeometry>
        </mxCell>
        <mxCell id="Sp0Ged5I5R-mPskfn0-_-8" value="" style="endArrow=classic;startArrow=classic;html=1;rounded=0;entryX=0.5;entryY=1;entryDx=0;entryDy=0;exitX=0;exitY=0;exitDx=0;exitDy=0;" edge="1" parent="1" source="Sp0Ged5I5R-mPskfn0-_-4" target="Sp0Ged5I5R-mPskfn0-_-3">
          <mxGeometry width="50" height="50" relative="1" as="geometry">
            <mxPoint x="410" y="200" as="sourcePoint" />
            <mxPoint x="460" y="150" as="targetPoint" />
          </mxGeometry>
        </mxCell>
        <mxCell id="Sp0Ged5I5R-mPskfn0-_-9" value="" style="endArrow=classic;startArrow=classic;html=1;rounded=0;exitX=1;exitY=0;exitDx=0;exitDy=0;entryX=0;entryY=0.5;entryDx=0;entryDy=0;" edge="1" parent="1" source="Sp0Ged5I5R-mPskfn0-_-5" target="Sp0Ged5I5R-mPskfn0-_-4">
          <mxGeometry width="50" height="50" relative="1" as="geometry">
            <mxPoint x="730" y="350" as="sourcePoint" />
            <mxPoint x="780" y="300" as="targetPoint" />
          </mxGeometry>
        </mxCell>
        <mxCell id="Sp0Ged5I5R-mPskfn0-_-10" value="" style="endArrow=classic;startArrow=classic;html=1;rounded=0;entryX=0.5;entryY=1;entryDx=0;entryDy=0;exitX=0.5;exitY=0;exitDx=0;exitDy=0;" edge="1" parent="1" source="Sp0Ged5I5R-mPskfn0-_-5" target="Sp0Ged5I5R-mPskfn0-_-2">
          <mxGeometry width="50" height="50" relative="1" as="geometry">
            <mxPoint x="500" y="430" as="sourcePoint" />
            <mxPoint x="550" y="380" as="targetPoint" />
          </mxGeometry>
        </mxCell>
        <mxCell id="Sp0Ged5I5R-mPskfn0-_-11" value="Node" style="text;html=1;strokeColor=none;fillColor=none;align=center;verticalAlign=middle;whiteSpace=wrap;rounded=0;" vertex="1" parent="1">
          <mxGeometry x="170" y="265" width="60" height="30" as="geometry" />
        </mxCell>
        <mxCell id="Sp0Ged5I5R-mPskfn0-_-12" value="Node" style="text;html=1;strokeColor=none;fillColor=none;align=center;verticalAlign=middle;whiteSpace=wrap;rounded=0;" vertex="1" parent="1">
          <mxGeometry x="400" y="475" width="60" height="30" as="geometry" />
        </mxCell>
        <mxCell id="Sp0Ged5I5R-mPskfn0-_-13" value="Node" style="text;html=1;strokeColor=none;fillColor=none;align=center;verticalAlign=middle;whiteSpace=wrap;rounded=0;" vertex="1" parent="1">
          <mxGeometry x="670" y="262.5" width="60" height="30" as="geometry" />
        </mxCell>
        <mxCell id="Sp0Ged5I5R-mPskfn0-_-14" value="Node" style="text;html=1;strokeColor=none;fillColor=none;align=center;verticalAlign=middle;whiteSpace=wrap;rounded=0;" vertex="1" parent="1">
          <mxGeometry x="605" y="75" width="60" height="30" as="geometry" />
        </mxCell>
        <mxCell id="Sp0Ged5I5R-mPskfn0-_-17" value="" style="whiteSpace=wrap;html=1;aspect=fixed;" vertex="1" parent="1">
          <mxGeometry x="410" y="445" width="30" height="30" as="geometry" />
        </mxCell>
        <mxCell id="Sp0Ged5I5R-mPskfn0-_-18" value="E" style="text;html=1;strokeColor=none;fillColor=none;align=center;verticalAlign=middle;whiteSpace=wrap;rounded=0;" vertex="1" parent="1">
          <mxGeometry x="390" y="445" width="60" height="30" as="geometry" />
        </mxCell>
        <mxCell id="Sp0Ged5I5R-mPskfn0-_-19" value="" style="whiteSpace=wrap;html=1;aspect=fixed;" vertex="1" parent="1">
          <mxGeometry x="405" y="265" width="30" height="30" as="geometry" />
        </mxCell>
        <mxCell id="Sp0Ged5I5R-mPskfn0-_-20" value="E" style="text;html=1;strokeColor=none;fillColor=none;align=center;verticalAlign=middle;whiteSpace=wrap;rounded=0;" vertex="1" parent="1">
          <mxGeometry x="390" y="265" width="60" height="30" as="geometry" />
        </mxCell>
        <mxCell id="Sp0Ged5I5R-mPskfn0-_-21" value="" style="whiteSpace=wrap;html=1;aspect=fixed;" vertex="1" parent="1">
          <mxGeometry x="615" y="250" width="30" height="30" as="geometry" />
        </mxCell>
        <mxCell id="Sp0Ged5I5R-mPskfn0-_-22" value="E" style="text;html=1;strokeColor=none;fillColor=none;align=center;verticalAlign=middle;whiteSpace=wrap;rounded=0;" vertex="1" parent="1">
          <mxGeometry x="600" y="250" width="60" height="30" as="geometry" />
        </mxCell>
        <mxCell id="Sp0Ged5I5R-mPskfn0-_-23" value="" style="whiteSpace=wrap;html=1;aspect=fixed;" vertex="1" parent="1">
          <mxGeometry x="615" y="90" width="30" height="30" as="geometry" />
        </mxCell>
        <mxCell id="Sp0Ged5I5R-mPskfn0-_-24" value="E" style="text;html=1;strokeColor=none;fillColor=none;align=center;verticalAlign=middle;whiteSpace=wrap;rounded=0;" vertex="1" parent="1">
          <mxGeometry x="600" y="90" width="60" height="30" as="geometry" />
        </mxCell>
        <mxCell id="Sp0Ged5I5R-mPskfn0-_-27" value="" style="ellipse;whiteSpace=wrap;html=1;aspect=fixed;" vertex="1" parent="1">
          <mxGeometry x="-630" y="370" width="80" height="80" as="geometry" />
        </mxCell>
        <mxCell id="Sp0Ged5I5R-mPskfn0-_-28" value="" style="ellipse;whiteSpace=wrap;html=1;aspect=fixed;" vertex="1" parent="1">
          <mxGeometry x="-680" y="250" width="80" height="80" as="geometry" />
        </mxCell>
        <mxCell id="Sp0Ged5I5R-mPskfn0-_-29" value="" style="ellipse;whiteSpace=wrap;html=1;aspect=fixed;" vertex="1" parent="1">
          <mxGeometry x="-450" y="65" width="80" height="80" as="geometry" />
        </mxCell>
        <mxCell id="Sp0Ged5I5R-mPskfn0-_-30" value="" style="ellipse;whiteSpace=wrap;html=1;aspect=fixed;" vertex="1" parent="1">
          <mxGeometry x="-200" y="265" width="80" height="80" as="geometry" />
        </mxCell>
        <mxCell id="Sp0Ged5I5R-mPskfn0-_-31" value="" style="ellipse;whiteSpace=wrap;html=1;aspect=fixed;" vertex="1" parent="1">
          <mxGeometry x="-430" y="425" width="80" height="80" as="geometry" />
        </mxCell>
        <mxCell id="Sp0Ged5I5R-mPskfn0-_-32" value="Milad" style="text;html=1;strokeColor=none;fillColor=none;align=center;verticalAlign=middle;whiteSpace=wrap;rounded=0;" vertex="1" parent="1">
          <mxGeometry x="-440" y="90" width="60" height="30" as="geometry" />
        </mxCell>
        <mxCell id="Sp0Ged5I5R-mPskfn0-_-33" value="Jose" style="text;html=1;strokeColor=none;fillColor=none;align=center;verticalAlign=middle;whiteSpace=wrap;rounded=0;" vertex="1" parent="1">
          <mxGeometry x="-670" y="275" width="60" height="30" as="geometry" />
        </mxCell>
        <mxCell id="Sp0Ged5I5R-mPskfn0-_-34" value="Toyin" style="text;html=1;strokeColor=none;fillColor=none;align=center;verticalAlign=middle;whiteSpace=wrap;rounded=0;" vertex="1" parent="1">
          <mxGeometry x="-190" y="290" width="60" height="30" as="geometry" />
        </mxCell>
        <mxCell id="Sp0Ged5I5R-mPskfn0-_-35" value="Said" style="text;html=1;strokeColor=none;fillColor=none;align=center;verticalAlign=middle;whiteSpace=wrap;rounded=0;" vertex="1" parent="1">
          <mxGeometry x="-420" y="450" width="60" height="30" as="geometry" />
        </mxCell>
        <mxCell id="Sp0Ged5I5R-mPskfn0-_-36" value="Mark" style="text;html=1;strokeColor=none;fillColor=none;align=center;verticalAlign=middle;whiteSpace=wrap;rounded=0;" vertex="1" parent="1">
          <mxGeometry x="-620" y="395" width="60" height="30" as="geometry" />
        </mxCell>
        <mxCell id="Sp0Ged5I5R-mPskfn0-_-37" value="" style="ellipse;whiteSpace=wrap;html=1;aspect=fixed;" vertex="1" parent="1">
          <mxGeometry x="-465" y="292.5" width="25" height="25" as="geometry" />
        </mxCell>
        <mxCell id="Sp0Ged5I5R-mPskfn0-_-38" value="Network" style="text;html=1;strokeColor=none;fillColor=none;align=center;verticalAlign=middle;whiteSpace=wrap;rounded=0;" vertex="1" parent="1">
          <mxGeometry x="60" y="65" width="60" height="30" as="geometry" />
        </mxCell>
        <mxCell id="Sp0Ged5I5R-mPskfn0-_-41" value="Main Network&lt;br&gt;&lt;br&gt;Test nets&lt;br&gt;&lt;br&gt;Rinkeby&lt;br&gt;&lt;br&gt;Ropsten&lt;br&gt;&lt;br&gt;Goerli&lt;br&gt;&lt;br&gt;Koven" style="text;html=1;strokeColor=none;fillColor=none;align=center;verticalAlign=middle;whiteSpace=wrap;rounded=0;" vertex="1" parent="1">
          <mxGeometry x="60" y="120" width="60" height="30" as="geometry" />
        </mxCell>
      </root>
    </mxGraphModel>
  </diagram>
</mxfile>
